<svg width="100pt" height="100pt" viewBox="0 0 100 100" xmlns="http://www.w3.org/2000/svg" fill="#449BFE"><path d="M87.5 43.75H75c-3.438 0-6.25 2.813-6.25 6.25v25c0 3.438 2.813 6.25 6.25 6.25h12.5c3.438 0 6.25-2.813 6.25-6.25V50c0-3.438-2.813-6.25-6.25-6.25zM75 75V50h3.125v3.125c0 1.719 1.406 3.125 3.125 3.125s3.125-1.406 3.125-3.125V50H87.5v25H75z"/><path d="M15.625 68.75h17.469l2.219 2.219a3.093 3.093 0 0 0 2.219.906h21.875c1.718 0 3.125-1.406 3.125-3.125s-1.407-3.125-3.125-3.125H38.813l-2.22-2.219a3.093 3.093 0 0 0-2.218-.906H19.094L18.781 25h62.47v9.375c0 1.719 1.406 3.125 3.124 3.125s3.126-1.406 3.126-3.125V25c0-3.438-2.813-6.25-6.25-6.25H18.78c-1.687 0-3.25.656-4.437 1.844s-1.812 2.781-1.812 4.469l.312 37.906c-3.812 1.187-6.594 4.718-6.594 8.906 0 5.156 4.219 9.375 9.375 9.375h43.75c1.719 0 3.125-1.406 3.125-3.125S61.094 75 59.375 75h-43.75c-1.719 0-3.125-1.406-3.125-3.125s1.406-3.125 3.125-3.125z"/></svg>