<svg xmlns="http://www.w3.org/2000/svg"
 width="512.000000pt" height="512.000000pt" viewBox="0 0 512.000000 512.000000"
 preserveAspectRatio="xMidYMid meet">
<g transform="translate(0.000000,512.000000) scale(0.100000,-0.100000)"
fill="currentColor" stroke="currentColor" stroke-linecap="round" stroke-linejoin="round" stroke-width="2">
<path d="M1845 4791 c-90 -22 -172 -90 -215 -176 l-25 -50 -3 -416 -3 -416
-49 -6 c-97 -12 -191 -81 -237 -175 l-28 -57 0 -1150 0 -1150 23 -45 c35 -72
75 -114 144 -151 l63 -34 258 -3 257 -3 0 -119 c0 -66 5 -130 11 -143 18 -39
60 -57 132 -57 l65 0 4 -130 c3 -126 4 -130 31 -157 l27 -28 260 0 260 0 27
28 c27 27 28 31 31 157 l4 130 65 0 c72 0 114 18 132 57 6 13 11 77 11 143 l0
119 258 3 257 3 63 34 c70 38 100 69 140 145 l27 51 0 1150 0 1150 -28 57
c-46 94 -140 163 -237 175 l-49 6 -3 416 -3 416 -34 63 c-37 69 -79 109 -151
144 l-45 23 -705 2 c-388 1 -718 -2 -735 -6z m1400 -217 c64 -30 66 -39 63
-461 l-3 -378 -745 0 -745 0 -3 378 c-2 328 0 383 14 412 31 67 8 65 732 65
575 0 658 -2 687 -16z m326 -1070 c62 -31 59 19 59 -1160 0 -1193 4 -1126 -65
-1158 -29 -14 -141 -16 -1005 -16 -864 0 -976 2 -1005 16 -69 32 -65 -35 -65
1157 0 773 3 1083 11 1106 7 18 26 41 43 52 30 18 65 19 1014 19 873 0 986 -2
1013 -16z m-691 -2599 l0 -55 -320 0 -320 0 0 55 0 55 320 0 320 0 0 -55z
m-212 -317 l-3 -53 -105 0 -105 0 -3 53 -3 52 111 0 111 0 -3 -52z"/>
<path d="M2078 4463 c-14 -9 -31 -27 -37 -40 -15 -33 -15 -494 0 -527 28 -60
122 -71 170 -20 l24 26 0 259 0 259 -26 26 c-33 33 -94 41 -131 17z"/>
<path d="M2504 4461 c-17 -11 -36 -34 -43 -52 -17 -50 -15 -460 3 -504 15 -35
59 -65 96 -65 37 0 81 30 96 65 11 26 14 87 14 255 0 245 -6 277 -59 304 -40
21 -69 20 -107 -3z"/>
<path d="M2945 4471 c-11 -5 -29 -19 -40 -31 -19 -21 -20 -36 -20 -280 l0
-258 24 -26 c48 -51 142 -40 170 20 16 35 15 494 -1 529 -20 45 -82 66 -133
46z"/>
</g>
</svg>
