<svg width="512" height="512" xmlns="http://www.w3.org/2000/svg" xmlns:svg="http://www.w3.org/2000/svg" preserveAspectRatio="xMidYMid meet">
  <g fill="currentColor" id="svg_1" transform="matrix(0.1 0 0 -0.1 0 0)">
   <path d="m3643,-1050c-114,-23 -203,-112 -233,-233c-10,-37 -7,-90 15,-299l26,-254l-182,-316l-182,-316l-83,-4c-54,-3 -91,-10 -108,-21c-27,-18 -45,-67 -38,-104c6,-32 50,-73 78,-73c13,0 24,-4 24,-8c0,-5 -37,-74 -83,-153l-83,-144l-82,-6c-87,-7 -125,-24 -144,-64c-25,-56 21,-135 79,-135c31,0 34,8 -70,-170l-84,-145l-86,-3c-76,-2 -88,-5 -111,-29c-37,-36 -36,-100 0,-137c15,-14 35,-26 45,-26c10,0 20,-4 23,-9c4,-5 -33,-77 -81,-160l-87,-151l-81,0c-96,0 -130,-18 -141,-75c-9,-47 13,-86 62,-110l42,-20l-50,-85c-27,-47 -58,-104 -69,-128l-20,-42l76,-283c41,-155 80,-295 87,-310c11,-28 53,-57 84,-57c27,0 585,150 606,163c10,7 114,177 231,379l212,368l65,0c93,1 131,17 153,62c16,32 17,44 7,72c-12,37 -47,66 -80,66c-11,0 -20,3 -20,8c0,4 38,73 83,152l84,145l79,6c113,9 154,37 154,107c0,42 -46,92 -84,92c-14,0 -26,2 -26,4c0,3 40,74 89,158l89,153l85,3c76,2 88,5 111,29c51,50 30,147 -35,160c-16,3 -32,9 -34,13c-3,5 34,76 82,159l87,151l83,0c71,0 85,3 108,23c40,34 45,94 11,134c-14,17 -39,33 -56,37l-31,6l28,48c48,84 54,88 233,167c250,111 302,139 340,181c105,120 100,302 -13,412c-25,24 -185,123 -402,247c-198,115 -406,235 -463,267c-169,97 -229,116 -319,98zm565,-471c255,-147 472,-275 483,-285c27,-24 34,-75 15,-112c-17,-33 -18,-34 -277,-150l-176,-79l-294,169c-162,93 -298,173 -303,178c-5,5 -19,113 -33,240c-20,194 -22,235 -11,258c16,34 73,64 107,55c14,-3 234,-127 489,-274zm-356,-625c139,-81 254,-147 255,-148c1,-1 -20,-41 -48,-89l-51,-87l-345,0c-189,0 -343,4 -341,8c13,32 264,461 270,462c4,0 121,-66 260,-146zm13,-571c-14,-27 -54,-96 -88,-155l-62,-108l-347,0l-347,0l48,83c27,45 67,115 90,155l42,72l345,0l346,0l-27,-47zm-275,-471c0,-8 -156,-280 -172,-299c-8,-10 -90,-13 -349,-13c-187,0 -339,3 -339,7c0,9 135,246 162,286l19,27l340,0c186,0 339,-3 339,-8zm-379,-664l-89,-153l-341,-3c-247,-2 -341,1 -341,9c0,6 37,76 83,155l82,144l347,0l347,0l-88,-152zm-211,-362c0,-6 -320,-560 -329,-569c-8,-8 -404,-116 -409,-112c-1,1 -27,94 -57,205l-54,203l81,139l80,138l344,0c189,0 344,-2 344,-4z" id="svg_3"/>
   <path d="m1770.27,-153.81c-114,-23 -203,-112 -233,-233c-10,-37 -7,-90 15,-299l26,-254l-182,-316l-182,-316l-83,-4c-54,-3 -91,-10 -108,-21c-27,-18 -45,-67 -38,-104c6,-32 50,-73 78,-73c13,0 24,-4 24,-8c0,-5 -37,-74 -83,-153l-83,-144l-82,-6c-87,-7 -125,-24 -144,-64c-25,-56 21,-135 79,-135c31,0 34,8 -70,-170l-84,-145l-86,-3c-76,-2 -88,-5 -111,-29c-37,-36 -36,-100 0,-137c15,-14 35,-26 45,-26c10,0 20,-4 23,-9c4,-5 -33,-77 -81,-160l-87,-151l-81,0c-96,0 -130,-18 -141,-75c-9,-47 13,-86 62,-110l42,-20l-50,-85c-27,-47 -58,-104 -69,-128l-20,-42l76,-283c41,-155 80,-295 87,-310c11,-28 53,-57 84,-57c27,0 585,150 606,163c10,7 114,177 231,379l212,368l65,0c93,1 131,17 153,62c16,32 17,44 7,72c-12,37 -47,66 -80,66c-11,0 -20,3 -20,8c0,4 38,73 83,152l84,145l79,6c113,9 154,37 154,107c0,42 -46,92 -84,92c-14,0 -26,2 -26,4c0,3 40,74 89,158l89,153l85,3c76,2 88,5 111,29c51,50 30,147 -35,160c-16,3 -32,9 -34,13c-3,5 34,76 82,159l87,151l83,0c71,0 85,3 108,23c40,34 45,94 11,134c-14,17 -39,33 -56,37l-31,6l28,48c48,84 54,88 233,167c250,111 302,139 340,181c105,120 100,302 -13,412c-25,24 -185,123 -402,247c-198,115 -406,235 -463,267c-169,97 -229,116 -319,98zm565,-471c255,-147 472,-275 483,-285c27,-24 34,-75 15,-112c-17,-33 -18,-34 -277,-150l-176,-79l-294,169c-162,93 -298,173 -303,178c-5,5 -19,113 -33,240c-20,194 -22,235 -11,258c16,34 73,64 107,55c14,-3 234,-127 489,-274zm-356,-625c139,-81 254,-147 255,-148c1,-1 -20,-41 -48,-89l-51,-87l-345,0c-189,0 -343,4 -341,8c13,32 264,461 270,462c4,0 121,-66 260,-146zm13,-571c-14,-27 -54,-96 -88,-155l-62,-108l-347,0l-347,0l48,83c27,45 67,115 90,155l42,72l345,0l346,0l-27,-47zm-275,-471c0,-8 -156,-280 -172,-299c-8,-10 -90,-13 -349,-13c-187,0 -339,3 -339,7c0,9 135,246 162,286l19,27l340,0c186,0 339,-3 339,-8zm-379,-664l-89,-153l-341,-3c-247,-2 -341,1 -341,9c0,6 37,76 83,155l82,144l347,0l347,0l-88,-152zm-211,-362c0,-6 -320,-560 -329,-569c-8,-8 -404,-116 -409,-112c-1,1 -27,94 -57,205l-54,203l81,139l80,138l344,0c189,0 344,-2 344,-4z" id="svg_6" transform="rotate(29.0109 1554.47 -2185.77)"/>
  </g>
</svg>